#!OML:ASF F:\VICON\USERDATA\INSTALL\rory3\rory3.ASF
:FULLY-SPECIFIED
:DEGREES
507
root 4.03788 16.3502 0.281837 12.7609 1.68242 3.20854
lowerback 4.85522 1.21308 5.00092
upperback 3.09794 1.80893 -3.25304
thorax 0.747167 1.01667 -6.2684
lowerneck -2.54854 6.56147 3.0363
upperneck 55.7422 8.96245 4.18986
head 25.6473 4.42511 3.71142
rclavicle 5.59082e-015 6.60959e-015
rhumerus -47.3005 15.4432 -103.325
rradius 94.4352
rwrist -56.744
rhand 3.86687 -48.7812
rfingers 7.12502
rthumb 29.2886 -76.495
lclavicle 5.59082e-015 6.60959e-015
lhumerus -33.9899 -30.6879 92.4411
lradius 96.3794
lwrist 88.32
lhand -17.8228 -20.549
lfingers 7.12502
lthumb 8.44136 9.26233
rfemur -60.2525 5.71955 13.3627
rtibia 82.4492
rfoot 13.1084 -2.17449
rtoes -20.6513
lfemur -36.2254 -3.30652 -32.462
ltibia 49.9669
lfoot -23.7749 14.4502
ltoes 9.11617
508
root 4.04872 16.3484 0.273992 12.7537 1.86143 3.25797
lowerback 4.84311 1.14992 4.98482
upperback 3.10475 1.72368 -3.2175
thorax 0.746627 0.973396 -6.21829
lowerneck -2.38267 6.57286 3.01015
upperneck 55.7855 8.98069 4.21352
head 25.6142 4.43297 3.72399
rclavicle 1.92697e-014 -2.78299e-014
rhumerus -47.322 15.4096 -103.112
rradius 94.5395
rwrist -56.9801
rhand 3.86687 -48.7812
rfingers 7.12502
rthumb 29.2886 -76.495
lclavicle 1.92697e-014 -2.78299e-014
lhumerus -34.2899 -30.5663 92.5865
lradius 96.333
lwrist 88.4507
lhand -17.7551 -20.5333
lfingers 7.12502
lthumb 8.50672 9.27539
rfemur -60.2692 5.48165 13.2558
rtibia 82.4848
rfoot 13.1645 -2.04806
rtoes -20.4531
lfemur -36.1827 -3.50605 -32.5346
ltibia 49.9559
lfoot -23.7246 14.5752
ltoes 8.91528
509
root 4.06003 16.3519 0.267186 12.7125 2.00824 3.21542
lowerback 4.90613 1.08332 5.09808
upperback 3.09716 1.64186 -3.20492
thorax 0.695227 0.932088 -6.26907
lowerneck -2.2954 6.61 3.01689
upperneck 55.8359 9.03183 4.24399
head 25.6321 4.4551 3.74947
rclavicle -1.05853e-014 5.91384e-015
rhumerus -47.3994 15.3669 -103.018
rradius 94.6035
rwrist -57.224
rhand 0.0989467 -48.5737
rfingers 7.12502
rthumb 25.6851 -76.8608
lclavicle -1.05853e-014 5.91384e-015
lhumerus -34.552 -30.2142 92.4626
lradius 96.6486
lwrist 89.1896
lhand -19.0714 -19.6733
lfingers 7.12502
lthumb 7.23627 10.183
rfemur -60.2097 5.31378 13.2487
rtibia 82.4553
rfoot 13.2347 -1.91616
rtoes -20.7172
lfemur -36.0968 -3.66647 -32.5091
ltibia 49.9073
lfoot -23.7197 14.6418
ltoes 8.92334
510
root 4.06875 16.352 0.262906 12.6991 2.09322 3.16595
lowerback 4.97573 1.03139 5.17131
upperback 3.11685 1.57835 -3.20814
thorax 0.670114 0.901107 -6.3139
lowerneck -2.39284 6.66318 3.03411
upperneck 55.9283 9.07774 4.33934
head 25.7888 4.47096 3.83662
rclavicle -1.44119e-015 -4.00054e-015
rhumerus -47.3989 15.3305 -102.965
rradius 94.6228
rwrist -57.4415
rhand -0.165723 -47.1091
rfingers 7.12502
rthumb 25.4316 -75.4326
lclavicle -1.44119e-015 -4.00054e-015
lhumerus -34.7571 -30.0593 92.4354
lradius 96.4487
lwrist 89.1365
lhand -17.901 -20.9442
lfingers 7.12502
lthumb 8.36587 8.87016
rfemur -60.1744 5.18906 13.2611
rtibia 82.4443
rfoot 13.1349 -1.73062
rtoes -21.8311
lfemur -36.0399 -3.7991 -32.4787
ltibia 49.8741
lfoot -23.7211 14.685
ltoes 9.07863
511
root 4.07836 16.3473 0.259989 12.7205 2.19377 3.26309
lowerback 4.97367 1.00015 5.08966
upperback 3.171 1.53342 -3.23743
thorax 0.719092 0.880791 -6.29562
lowerneck -2.4653 6.66699 2.99695
upperneck 55.9351 9.01775 4.48339
head 25.8048 4.45 3.92496
rclavicle 4.60932e-015 1.58034e-014
rhumerus -47.356 15.1503 -102.849
rradius 94.66
rwrist -57.58
rhand -0.147392 -45.9191
rfingers 7.12502
rthumb 25.4492 -74.2401
lclavicle 4.60932e-015 1.58034e-014
lhumerus -34.8281 -29.9893 92.4205
lradius 96.1542
lwrist 89.1224
lhand -16.7467 -21.8005
lfingers 7.12502
lthumb 9.47973 7.96631
rfemur -60.1907 4.92956 13.1356
rtibia 82.4955
rfoot 12.9898 -1.52141
rtoes -22.7384
lfemur -35.9897 -3.98589 -32.6149
ltibia 49.8837
lfoot -23.7165 14.7969
ltoes 8.9817
512
root 4.08568 16.343 0.255074 12.7707 2.27777 3.35774
lowerback 4.95775 0.982856 4.99455
upperback 3.17583 1.50616 -3.28994
thorax 0.727534 0.866673 -6.29511
lowerneck -2.50794 6.62293 2.96842
upperneck 55.9439 8.87691 4.62619
head 25.8157 4.40168 3.99384
rclavicle -2.5842e-015 1.4064e-014
rhumerus -47.4032 14.9085 -102.813
rradius 94.6882
rwrist -57.5684
rhand -0.113772 -44.9918
rfingers 7.12502
rthumb 25.4814 -73.3082
lclavicle -2.5842e-015 1.4064e-014
lhumerus -34.861 -29.9738 92.3196
lradius 95.8974
lwrist 89.5075
lhand -16.7906 -21.2768
lfingers 7.12502
lthumb 9.43744 8.49192
rfemur -60.2847 4.69247 13.0197
rtibia 82.5618
rfoot 12.9998 -1.52358
rtoes -22.4729
lfemur -36.0518 -4.15864 -32.7301
ltibia 49.9609
lfoot -23.6802 14.9263
ltoes 8.69151
513
root 4.08442 16.3383 0.249222 12.8415 2.27801 3.24193
lowerback 4.98777 1.00107 4.9797
upperback 3.06429 1.53094 -3.28567
thorax 0.59794 0.87152 -6.28517
lowerneck -2.45232 6.59807 3.08909
upperneck 56.0689 8.80268 4.66605
head 25.9775 4.3938 4.00108
rclavicle -7.92033e-015 -1.54493e-014
rhumerus -47.6205 14.7533 -102.845
rradius 94.6933
rwrist -57.5334
rhand -0.0888267 -44.8839
rfingers 7.12502
rthumb 25.5053 -73.1968
lclavicle -7.92033e-015 -1.54493e-014
lhumerus -35.0924 -29.7766 92.2071
lradius 95.7991
lwrist 90.0615
lhand -18.7427 -19.7165
lfingers 7.12502
lthumb 7.55347 10.1286
rfemur -60.4593 4.67544 13.1627
rtibia 82.6205
rfoot 13.1191 -1.60889
rtoes -22.0696
lfemur -36.2727 -4.20584 -32.5794
ltibia 50.1208
lfoot -23.7041 14.9325
ltoes 8.83987
514
root 4.07856 16.3336 0.243966 12.9224 2.18717 3.01018
lowerback 4.98523 1.06495 4.96597
upperback 2.97905 1.6153 -3.21463
thorax 0.520317 0.907945 -6.20635
lowerneck -2.48178 6.61368 3.12798
upperneck 56.2534 8.75454 4.84515
head 26.2306 4.38274 4.13185
rclavicle 8.10902e-015 -6.84565e-015
rhumerus -47.7715 14.626 -102.769
rradius 94.6894
rwrist -57.5177
rhand -1.17423 -45.6043
rfingers 7.12502
rthumb 24.4652 -74.0619
lclavicle 8.10902e-015 -6.84565e-015
lhumerus -35.347 -29.4277 92.0839
lradius 95.9802
lwrist 90.9519
lhand -20.898 -17.8435
lfingers 7.12502
lthumb 5.47286 12.0659
rfemur -60.6834 4.79015 13.4407
rtibia 82.6601
rfoot 13.2345 -1.74096
rtoes -21.6362
lfemur -36.5616 -4.11919 -32.2933
ltibia 50.3208
lfoot -23.8121 14.8388
ltoes 9.24004
515
root 4.07741 16.3287 0.238046 13.0942 2.11173 2.80298
lowerback 4.82653 1.10417 5.0073
upperback 2.96155 1.66294 -3.15093
thorax 0.596808 0.933668 -6.16034
lowerneck -2.62035 6.65261 2.9886
upperneck 56.2857 8.7424 5.06851
head 26.2861 4.35859 4.30765
rclavicle -2.48364e-014 2.2854e-014
rhumerus -47.7608 14.5183 -102.641
rradius 94.6546
rwrist -57.37
rhand -0.811152 -45.9031
rfingers 7.12502
rthumb 24.8132 -74.3132
lclavicle -2.48364e-014 2.2854e-014
lhumerus -35.5406 -29.3759 92.1223
lradius 95.5151
lwrist 90.324
lhand -18.1175 -19.7344
lfingers 7.12502
lthumb 8.15697 10.0882
rfemur -60.9968 4.82396 13.6705
rtibia 82.6964
rfoot 13.2538 -1.82087
rtoes -21.8106
lfemur -36.9381 -4.0635 -32.0465
ltibia 50.4829
lfoot -23.9257 14.7875
ltoes 9.32085
516
root 4.08156 16.3234 0.232318 13.29 2.14822 2.68562
lowerback 4.6026 1.0775 5.08596
upperback 2.89466 1.62157 -3.13188
thorax 0.648449 0.913673 -6.17878
lowerneck -2.45511 6.69809 2.96916
upperneck 56.1455 8.83268 5.00392
head 26.0027 4.39974 4.23933
rclavicle 1.14301e-014 -2.22639e-014
rhumerus -47.8343 14.4122 -102.567
rradius 94.6442
rwrist -57.1506
rhand 1.46795 -46.3662
rfingers 7.12502
rthumb 26.9956 -74.4573
lclavicle 1.14301e-014 -2.22639e-014
lhumerus -35.829 -29.3128 92.1705
lradius 95.0528
lwrist 89.7725
lhand -15.7465 -21.8033
lfingers 7.12502
lthumb 10.4447 7.91726
rfemur -61.2858 4.69549 13.7988
rtibia 82.7757
rfoot 13.3172 -1.72346
rtoes -22.3698
lfemur -37.2764 -4.11236 -31.9177
ltibia 50.626
lfoot -24.0064 14.7915
ltoes 9.08098
